# xmcd CD database file
#
# Track frame offsets:
#	150
#	20020
#	38855
#
# Disc length: 779 seconds
#
# Revision: 0
# Processed by: cddbd v1.5PL3 Copyright (c) Steve Scherf et al.
# Submitted via: CDex 1.50
#
DISCID=1e030903
DTITLE=SUPER CHOCOLATE - ROULETTE
DYEAR=1996
DGENRE=JPop
TTITLE0=ROULETTE
TTITLE1=CAMERA FREAK
TTITLE2=ROULETTE(INSTRUMENTAL)
EXTD=YEAR: 1996
EXTT0=
EXTT1=
EXTT2=
PLAYORDER=
